<?xml version="1.0" encoding="UTF-8" standalone="no"?>
<svg
   version="1.1"
   id="svg2"
   width="800"
   height="800"
   viewBox="0 0 800 800"
   sodipodi:docname="futura.svg"
   inkscape:version="1.1.2 (0a00cf5339, 2022-02-04)"
   inkscape:export-filename="/home/jose/Downloads/futura-logo-delta-2.png"
   inkscape:export-xdpi="96"
   inkscape:export-ydpi="96"
   xmlns:inkscape="http://www.inkscape.org/namespaces/inkscape"
   xmlns:sodipodi="http://sodipodi.sourceforge.net/DTD/sodipodi-0.dtd"
   xmlns="http://www.w3.org/2000/svg"
   xmlns:svg="http://www.w3.org/2000/svg"
   xmlns:rdf="http://www.w3.org/1999/02/22-rdf-syntax-ns#"
   xmlns:cc="http://creativecommons.org/ns#"
   xmlns:dc="http://purl.org/dc/elements/1.1/">
  <metadata
     id="metadata33">
    <rdf:RDF>
      <cc:Work
         rdf:about="">
        <dc:format>image/svg+xml</dc:format>
        <dc:type
           rdf:resource="http://purl.org/dc/dcmitype/StillImage" />
      </cc:Work>
    </rdf:RDF>
  </metadata>
  <defs
     id="defs6" />
  <sodipodi:namedview
     id="namedview4"
     pagecolor="#505050"
     bordercolor="#eeeeee"
     borderopacity="1"
     inkscape:pageshadow="0"
     inkscape:pageopacity="0"
     inkscape:pagecheckerboard="0"
     showgrid="false"
     inkscape:zoom="0.69166665"
     inkscape:cx="-2.1686748"
     inkscape:cy="401.92772"
     inkscape:window-width="1920"
     inkscape:window-height="1019"
     inkscape:window-x="0"
     inkscape:window-y="30"
     inkscape:window-maximized="1"
     inkscape:current-layer="g8"
     showguides="false"
     inkscape:guide-bbox="true"
     inkscape:snap-global="true"
     inkscape:snap-object-midpoints="true"
     inkscape:snap-bbox="false"
     inkscape:bbox-nodes="true"
     inkscape:document-rotation="0">
    <sodipodi:guide
       position="263.16397,474.71778"
       orientation="1.56836,0"
       id="guide4919" />
    <sodipodi:guide
       position="350.21085,286.91504"
       orientation="-100.75586,0"
       id="guide4925" />
    <sodipodi:guide
       position="435.68936,473.14942"
       orientation="0,52.68359"
       id="guide4927" />
    <sodipodi:guide
       position="488.37315,560.19629"
       orientation="0,-41.95507"
       id="guide4929" />
    <sodipodi:guide
       position="491.97302,286.91504"
       orientation="-2.2737368e-13,-0.00029"
       id="guide4937" />
    <sodipodi:guide
       position="403.4802,243.3916"
       orientation="-2.2737368e-13,-0.00029"
       id="guide4972" />
    <sodipodi:guide
       position="531.89658,474.71778"
       orientation="1.56836,0"
       id="guide4976" />
    <sodipodi:guide
       position="426.68759,440.19629"
       orientation="0,-0.00019"
       id="guide4994" />
    <sodipodi:guide
       position="449.78721,353.14942"
       orientation="5.6843419e-14,-0.00019"
       id="guide4998" />
    <sodipodi:guide
       position="383.16398,474.71778"
       orientation="1.56836,0"
       id="guide5031" />
    <sodipodi:guide
       position="470.21086,286.91504"
       orientation="-100.75586,0"
       id="guide5037" />
  </sodipodi:namedview>
  <g
     inkscape:groupmode="layer"
     inkscape:label="Image"
     id="g8">
    <path
       style="fill:none;fill-opacity:1;stroke:#4d1d71;stroke-width:25.8631;stroke-miterlimit:4;stroke-dasharray:none;stroke-opacity:1"
       d="m 72.373994,26.551188 c -25.385625,0 -45.822796,20.437188 -45.822796,45.822796 V 400 727.62601 c 0,25.38562 20.437171,45.82279 45.822796,45.82279 H 400.00001 a 373.44712,373.44712 0 0 0 0.002,0 A 373.44712,373.44712 0 0 0 773.44881,400 V 72.373984 c 0,-25.385625 -20.43712,-45.822796 -45.82279,-45.822796 h -327.26905 -0.35696 z"
       id="path4310" />
    <g
       id="g6107"
       transform="matrix(1.6783562,0,0,1.6783562,1457.5793,33.587478)"
       style="fill:#4d1d71;fill-opacity:1">
      <path
         id="path8003"
         style="fill:#4d1d71;fill-opacity:1"
         d="m -709.92362,43.043153 c -1.47985,0 -2.94922,0.0377 -4.41016,0.11133 -1.46094,0.0736 -2.91325,0.18273 -4.35352,0.32812 -1.44026,0.14539 -2.86928,0.32753 -4.28711,0.54297 -1.41782,0.21544 -2.82317,0.46431 -4.21679,0.74805 -1.39362,0.28373 -2.77493,0.60286 -4.14258,0.95312 -1.36766,0.35026 -2.72258,0.73147 -4.0625,1.14649 -2.67985,0.83003 -5.30298,1.78868 -7.86133,2.86718 -2.55835,1.07851 -5.05186,2.27699 -7.47461,3.58985 -2.42275,1.31286 -4.77384,2.74036 -7.04687,4.27343 -2.27304,1.53311 -4.46696,3.17286 -6.57618,4.91211 -2.10921,1.73925 -4.13316,3.57848 -6.06445,5.50977 -1.93128,1.93129 -3.77051,3.95524 -5.50976,6.06445 -1.73925,2.10922 -3.37901,4.30316 -4.91211,6.57617 -1.53311,2.27304 -2.96058,4.62413 -4.27344,7.04688 -1.31286,2.42275 -2.51134,4.91626 -3.58985,7.47461 -1.0785,2.55835 -2.03519,5.181477 -2.86523,7.861327 -0.41502,1.33992 -0.79818,2.69484 -1.14844,4.0625 -0.35025,1.36765 -0.66939,2.74895 -0.95312,4.14258 -0.28373,1.39362 -0.5326,2.79897 -0.74805,4.21679 -0.21544,1.41783 -0.39562,2.84685 -0.54101,4.28711 -0.1454,1.44026 -0.2565,2.89258 -0.33008,4.35352 -0.0736,1.46094 -0.11133,2.9303 -0.11133,4.41015 v 1.56836 144.2793 41.95508 a 43.52282,43.52282 0 0 0 1.48437,11.26562 43.52282,43.52282 0 0 0 4.34766,10.4961 43.52282,43.52282 0 0 0 6.91602,9.01367 43.52282,43.52282 0 0 0 9.01367,6.91797 43.52282,43.52282 0 0 0 10.49804,4.34765 43.52282,43.52282 0 0 0 11.26368,1.48243 43.52282,43.52282 0 0 0 11.26562,-1.48243 43.52282,43.52282 0 0 0 10.4961,-4.34765 43.52282,43.52282 0 0 0 9.01367,-6.91797 43.52282,43.52282 0 0 0 6.91602,-9.01367 43.52282,43.52282 0 0 0 4.34766,-10.4961 43.52282,43.52282 0 0 0 1.48437,-11.26562 V 215.56854 c 0,-1.47985 0.0377,-2.94922 0.11133,-4.41016 0.0736,-1.46094 0.18468,-2.91325 0.33008,-4.35351 0.14539,-1.44026 0.32558,-2.86928 0.54102,-4.28711 0.21545,-1.41782 0.46431,-2.82318 0.74804,-4.2168 0.28373,-1.39363 0.60288,-2.77493 0.95313,-4.14258 0.35026,-1.36766 0.73342,-2.72258 1.14844,-4.0625 0.41502,-1.33992 0.8621,-2.666 1.33984,-3.97656 0.47774,-1.31056 0.98614,-2.60559 1.52539,-3.88477 0.53925,-1.27917 1.10849,-2.54304 1.70703,-3.78906 0.59854,-1.24601 1.22638,-2.47418 1.88281,-3.68554 0.65643,-1.21138 1.34208,-2.40534 2.05469,-3.58008 0.71262,-1.17475 1.4522,-2.33028 2.21875,-3.4668 0.76655,-1.1365 1.55992,-2.25335 2.37891,-3.34961 0.81898,-1.09626 1.66358,-2.17195 2.5332,-3.22656 0.86963,-1.05461 1.76497,-2.08856 2.68359,-3.09961 0.91863,-1.01105 1.86054,-1.99921 2.82618,-2.96484 0.96564,-0.96565 1.95379,-1.90755 2.96484,-2.82618 1.01105,-0.91862 2.045,-1.81397 3.09961,-2.68359 1.05461,-0.86963 2.1303,-1.71422 3.22656,-2.5332 1.09626,-0.81899 2.21309,-1.61235 3.34961,-2.37891 1.13652,-0.76653 2.29205,-1.50613 3.4668,-2.21875 1.17473,-0.71262 2.36869,-1.39826 3.58008,-2.05469 1.21137,-0.65643 2.43953,-1.28427 3.68554,-1.88281 1.24602,-0.59854 2.50989,-1.16778 3.78906,-1.70703 1.27918,-0.53925 2.57421,-1.04912 3.88476,-1.52734 1.31056,-0.47823 2.63664,-0.92483 3.97656,-1.33985 1.33992,-0.41502 2.69484,-0.79622 4.0625,-1.14648 1.36766,-0.35026 2.74896,-0.6694 4.14258,-0.95313 1.39362,-0.28374 2.79898,-0.5326 4.2168,-0.74804 1.41783,-0.21545 2.84685,-0.39758 4.28711,-0.54297 1.44027,-0.14539 2.89257,-0.25453 4.35351,-0.32813 1.46094,-0.0736 2.9303,-0.11133 4.41016,-0.11133 h 52.68359 a 43.52282,43.52282 0 0 0 11.26563,-1.48437 43.52282,43.52282 0 0 0 10.49609,-4.34766 43.52282,43.52282 0 0 0 9.01367,-6.91601 43.52282,43.52282 0 0 0 6.91602,-9.01368 43.52282,43.52282 0 0 0 4.34961,-10.498037 43.52282,43.52282 0 0 0 0.13086,-0.50196 43.52282,43.52282 0 0 0 0.125,-0.50195 43.52282,43.52282 0 0 0 0.11914,-0.5039 43.52282,43.52282 0 0 0 0.11328,-0.50586 43.52282,43.52282 0 0 0 0.10743,-0.50586 43.52282,43.52282 0 0 0 0.0996,-0.50782 43.52282,43.52282 0 0 0 0.0957,-0.50976 43.52282,43.52282 0 0 0 0.0898,-0.50977 43.52282,43.52282 0 0 0 0.082,-0.51172 43.52282,43.52282 0 0 0 0.0762,-0.51171 43.52282,43.52282 0 0 0 0.0703,-0.51368 43.52282,43.52282 0 0 0 0.0664,-0.51367 43.52282,43.52282 0 0 0 0.0566,-0.51367 43.52282,43.52282 0 0 0 0.0527,-0.51563 43.52282,43.52282 0 0 0 0.0469,-0.51562 43.52282,43.52282 0 0 0 0.0391,-0.51563 43.52282,43.52282 0 0 0 0.0352,-0.51757 43.52282,43.52282 0 0 0 0.0273,-0.51758 43.52282,43.52282 0 0 0 0.0215,-0.51758 43.52282,43.52282 0 0 0 0.0156,-0.51758 43.52282,43.52282 0 0 0 0.008,-0.51758 43.52282,43.52282 0 0 0 0.004,-0.51757 43.52282,43.52282 0 0 0 -0.16601,-3.79297 43.52282,43.52282 0 0 0 -0.4961,-3.76563 43.52282,43.52282 0 0 0 -0.82031,-3.70508 43.52282,43.52282 0 0 0 -1.14258,-3.62109 43.52282,43.52282 0 0 0 -1.45312,-3.50781 43.52282,43.52282 0 0 0 -1.75391,-3.36914 43.52282,43.52282 0 0 0 -2.03906,-3.20118 43.52282,43.52282 0 0 0 -2.3125,-3.01367 43.52282,43.52282 0 0 0 -2.56446,-2.79883 43.52282,43.52282 0 0 0 -2.79882,-2.56445 43.52282,43.52282 0 0 0 -3.01172,-2.3125 43.52282,43.52282 0 0 0 -3.20312,-2.03906 43.52282,43.52282 0 0 0 -3.36719,-1.75391 43.52282,43.52282 0 0 0 -3.50781,-1.45312 43.52282,43.52282 0 0 0 -3.62109,-1.14063 43.52282,43.52282 0 0 0 -3.70703,-0.82226 43.52282,43.52282 0 0 0 -3.76563,-0.4961 43.52282,43.52282 0 0 0 -3.79297,-0.16601 h -41.95507 -96.20704 z" />
      <path
         id="path923"
         style="fill:#4d1d71;fill-opacity:1;stroke-width:0.5"
         d="m -549.15287,316.3244 a 21.76141,21.76141 0 0 0 -5.63183,0.74219 21.76141,21.76141 0 0 0 -5.24903,2.17382 21.76141,21.76141 0 0 0 -4.50683,3.45801 21.76141,21.76141 0 0 0 -3.45801,4.50684 21.76141,21.76141 0 0 0 -2.17383,5.24902 21.76141,21.76141 0 0 0 -0.74218,5.63184 21.76141,21.76141 0 0 0 0.74218,5.63184 21.76141,21.76141 0 0 0 2.17383,5.24902 21.76141,21.76141 0 0 0 3.45801,4.50684 21.76141,21.76141 0 0 0 4.50683,3.458 21.76141,21.76141 0 0 0 5.24903,2.17383 21.76141,21.76141 0 0 0 5.63183,0.74219 21.76141,21.76141 0 0 0 5.63282,-0.74219 21.76141,21.76141 0 0 0 5.24804,-2.17383 21.76141,21.76141 0 0 0 4.50684,-3.45801 21.76141,21.76141 0 0 0 3.45801,-4.50684 21.76141,21.76141 0 0 0 2.1748,-5.24902 21.76141,21.76141 0 0 0 0.0654,-0.25098 21.76141,21.76141 0 0 0 0.0625,-0.25097 21.76141,21.76141 0 0 0 0.0596,-0.25195 21.76141,21.76141 0 0 0 0.0566,-0.25293 21.76141,21.76141 0 0 0 0.0537,-0.25293 21.76141,21.76141 0 0 0 0.0498,-0.25391 21.76141,21.76141 0 0 0 0.0479,-0.25488 21.76141,21.76141 0 0 0 0.0449,-0.25488 21.76141,21.76141 0 0 0 0.041,-0.25586 21.76141,21.76141 0 0 0 0.0381,-0.25586 21.76141,21.76141 0 0 0 0.0352,-0.25684 21.76141,21.76141 0 0 0 0.0332,-0.25684 21.76141,21.76141 0 0 0 0.0283,-0.25683 21.76141,21.76141 0 0 0 0.0264,-0.25781 21.76141,21.76141 0 0 0 0.0234,-0.25782 21.76141,21.76141 0 0 0 0.0195,-0.25781 21.76141,21.76141 0 0 0 0.0176,-0.25878 21.76141,21.76141 0 0 0 0.0136,-0.25879 21.76141,21.76141 0 0 0 0.0108,-0.2588 21.76141,21.76141 0 0 0 0.008,-0.25878 21.76141,21.76141 0 0 0 0.004,-0.25879 21.76141,21.76141 0 0 0 0.002,-0.25879 21.76141,21.76141 0 0 0 -0.083,-1.89649 21.76141,21.76141 0 0 0 -0.24805,-1.88281 21.76141,21.76141 0 0 0 -0.41016,-1.85254 21.76141,21.76141 0 0 0 -0.57129,-1.81055 21.76141,21.76141 0 0 0 -0.72656,-1.7539 21.76141,21.76141 0 0 0 -0.87696,-1.68457 21.76141,21.76141 0 0 0 -1.01953,-1.60059 21.76141,21.76141 0 0 0 -1.15625,-1.50683 21.76141,21.76141 0 0 0 -1.28223,-1.39942 21.76141,21.76141 0 0 0 -1.39941,-1.28222 21.76141,21.76141 0 0 0 -1.50586,-1.15625 21.76141,21.76141 0 0 0 -1.60156,-1.01954 21.76141,21.76141 0 0 0 -1.68359,-0.87695 21.76141,21.76141 0 0 0 -1.75391,-0.72656 21.76141,21.76141 0 0 0 -1.81055,-0.57032 21.76141,21.76141 0 0 0 -1.85351,-0.41113 21.76141,21.76141 0 0 0 -1.88281,-0.24805 21.76141,21.76141 0 0 0 -1.89649,-0.083 z" />
      <path
         id="path950"
         style="fill:#4d1d71;fill-opacity:1"
         d="m -631.87871,163.04315 a 43.52282,43.52282 0 0 0 -11.26366,1.48437 43.52282,43.52282 0 0 0 -10.49805,4.34766 43.52282,43.52282 0 0 0 -9.01367,6.91601 43.52282,43.52282 0 0 0 -6.91601,9.01368 43.52282,43.52282 0 0 0 -4.34766,10.49804 43.52282,43.52282 0 0 0 -1.48437,11.26368 43.52282,43.52282 0 0 0 1.48437,11.26367 43.52282,43.52282 0 0 0 4.34766,10.49804 43.52282,43.52282 0 0 0 6.91601,9.01368 43.52282,43.52282 0 0 0 9.01367,6.91601 43.52282,43.52282 0 0 0 10.49805,4.34766 43.52282,43.52282 0 0 0 11.26367,1.48437 43.52282,43.52282 0 0 0 11.26563,-1.48437 43.52282,43.52282 0 0 0 10.49609,-4.34766 43.52282,43.52282 0 0 0 9.01367,-6.91601 43.52282,43.52282 0 0 0 6.91602,-9.01368 43.52282,43.52282 0 0 0 4.34961,-10.49804 43.52282,43.52282 0 0 0 0.13085,-0.50196 43.52282,43.52282 0 0 0 0.125,-0.50195 43.52282,43.52282 0 0 0 0.11915,-0.5039 43.52282,43.52282 0 0 0 0.11327,-0.50586 43.52282,43.52282 0 0 0 0.10742,-0.50586 43.52282,43.52282 0 0 0 0.0996,-0.50782 43.52282,43.52282 0 0 0 0.0957,-0.50976 43.52282,43.52282 0 0 0 0.0898,-0.50977 43.52282,43.52282 0 0 0 0.082,-0.51172 43.52282,43.52282 0 0 0 0.0762,-0.51171 43.52282,43.52282 0 0 0 0.0703,-0.51368 43.52282,43.52282 0 0 0 0.0664,-0.51367 43.52282,43.52282 0 0 0 0.0566,-0.51367 43.52282,43.52282 0 0 0 0.0527,-0.51563 43.52282,43.52282 0 0 0 0.0469,-0.51562 43.52282,43.52282 0 0 0 0.0391,-0.51563 43.52282,43.52282 0 0 0 0.0352,-0.51757 43.52282,43.52282 0 0 0 0.0273,-0.51758 43.52282,43.52282 0 0 0 0.0215,-0.51758 43.52282,43.52282 0 0 0 0.0156,-0.51758 43.52282,43.52282 0 0 0 0.008,-0.51758 43.52282,43.52282 0 0 0 0.004,-0.51757 43.52282,43.52282 0 0 0 -0.166,-3.79297 43.52282,43.52282 0 0 0 -0.4961,-3.76563 43.52282,43.52282 0 0 0 -0.82031,-3.70508 43.52282,43.52282 0 0 0 -1.14259,-3.62109 43.52282,43.52282 0 0 0 -1.45312,-3.50781 43.52282,43.52282 0 0 0 -1.75391,-3.36914 43.52282,43.52282 0 0 0 -2.03906,-3.20118 43.52282,43.52282 0 0 0 -2.3125,-3.01367 43.52282,43.52282 0 0 0 -2.56446,-2.79883 43.52282,43.52282 0 0 0 -2.79882,-2.56445 43.52282,43.52282 0 0 0 -3.01172,-2.3125 43.52282,43.52282 0 0 0 -3.20313,-2.03906 43.52282,43.52282 0 0 0 -3.36718,-1.75391 43.52282,43.52282 0 0 0 -3.50782,-1.45312 43.52282,43.52282 0 0 0 -3.62109,-1.14063 43.52282,43.52282 0 0 0 -3.70702,-0.82226 43.52282,43.52282 0 0 0 -3.76563,-0.4961 43.52282,43.52282 0 0 0 -3.79297,-0.16601 z" />
      <path
         id="path4409"
         style="fill:#4d1d71;fill-opacity:1;stroke-width:0.5"
         d="m -653.64042,316.3244 a 21.76141,21.76141 0 0 0 -5.63183,0.74219 21.76141,21.76141 0 0 0 -5.24903,2.17382 21.76141,21.76141 0 0 0 -4.50683,3.45801 21.76141,21.76141 0 0 0 -3.45801,4.50684 21.76141,21.76141 0 0 0 -2.17383,5.24902 21.76141,21.76141 0 0 0 -0.74218,5.63184 21.76141,21.76141 0 0 0 0.74218,5.63184 21.76141,21.76141 0 0 0 2.17383,5.24902 21.76141,21.76141 0 0 0 3.45801,4.50684 21.76141,21.76141 0 0 0 4.50683,3.458 21.76141,21.76141 0 0 0 5.24903,2.17383 21.76141,21.76141 0 0 0 5.63183,0.74219 21.76141,21.76141 0 0 0 5.63282,-0.74219 21.76141,21.76141 0 0 0 5.24804,-2.17383 21.76141,21.76141 0 0 0 4.50684,-3.45801 21.76141,21.76141 0 0 0 3.45801,-4.50684 21.76141,21.76141 0 0 0 2.1748,-5.24902 21.76141,21.76141 0 0 0 0.0654,-0.25098 21.76141,21.76141 0 0 0 0.0625,-0.25097 21.76141,21.76141 0 0 0 0.0596,-0.25195 21.76141,21.76141 0 0 0 0.0566,-0.25293 21.76141,21.76141 0 0 0 0.0537,-0.25293 21.76141,21.76141 0 0 0 0.0498,-0.25391 21.76141,21.76141 0 0 0 0.0479,-0.25488 21.76141,21.76141 0 0 0 0.0449,-0.25488 21.76141,21.76141 0 0 0 0.041,-0.25586 21.76141,21.76141 0 0 0 0.0381,-0.25586 21.76141,21.76141 0 0 0 0.0352,-0.25684 21.76141,21.76141 0 0 0 0.0332,-0.25684 21.76141,21.76141 0 0 0 0.0283,-0.25683 21.76141,21.76141 0 0 0 0.0264,-0.25781 21.76141,21.76141 0 0 0 0.0234,-0.25782 21.76141,21.76141 0 0 0 0.0195,-0.25781 21.76141,21.76141 0 0 0 0.0176,-0.25878 21.76141,21.76141 0 0 0 0.0136,-0.25879 21.76141,21.76141 0 0 0 0.0108,-0.2588 21.76141,21.76141 0 0 0 0.008,-0.25878 21.76141,21.76141 0 0 0 0.004,-0.25879 21.76141,21.76141 0 0 0 0.002,-0.25879 21.76141,21.76141 0 0 0 -0.083,-1.89649 21.76141,21.76141 0 0 0 -0.24805,-1.88281 21.76141,21.76141 0 0 0 -0.41016,-1.85254 21.76141,21.76141 0 0 0 -0.57129,-1.81055 21.76141,21.76141 0 0 0 -0.72656,-1.7539 21.76141,21.76141 0 0 0 -0.87696,-1.68457 21.76141,21.76141 0 0 0 -1.01953,-1.60059 21.76141,21.76141 0 0 0 -1.15625,-1.50683 21.76141,21.76141 0 0 0 -1.28223,-1.39942 21.76141,21.76141 0 0 0 -1.39941,-1.28222 21.76141,21.76141 0 0 0 -1.50586,-1.15625 21.76141,21.76141 0 0 0 -1.60156,-1.01954 21.76141,21.76141 0 0 0 -1.68359,-0.87695 21.76141,21.76141 0 0 0 -1.75391,-0.72656 21.76141,21.76141 0 0 0 -1.81055,-0.57032 21.76141,21.76141 0 0 0 -1.85351,-0.41113 21.76141,21.76141 0 0 0 -1.88281,-0.24805 21.76141,21.76141 0 0 0 -1.89649,-0.083 z" />
    </g>
  </g>
</svg>
